<svg width="43" height="40" viewBox="0 0 43 40" fill="none" xmlns="http://www.w3.org/2000/svg">
<g id="Frame" clip-path="url(#clip0_109_308)">
<rect width="42.5143" height="40" transform="translate(0.314209)" fill="black"/>
<path id="Vector" d="M36.4514 0H6.69135C3.16935 0 0.314209 2.68629 0.314209 6V34C0.314209 37.3137 3.16935 40 6.69135 40H36.4514C39.9734 40 42.8285 37.3137 42.8285 34V6C42.8285 2.68629 39.9734 0 36.4514 0Z" fill="#1B1817"/>
<path id="Vector_2" d="M28.1311 38.9844C29.2936 38.9844 29.1276 40.3125 29.1276 40.3125H14.0151C14.0151 40.3125 13.849 38.9844 15.0115 38.9844C16.091 38.9844 16.3401 38.5156 16.3401 38.0469L16.257 34.1406C10.3615 35.3906 9.11596 31.9531 9.11596 31.9531C8.11953 29.6094 6.79096 29.0625 6.79096 29.0625C4.7981 27.8125 6.87399 27.8125 6.87399 27.8125C9.03292 27.9688 10.1954 29.8438 10.1954 29.8438C12.0222 32.8906 15.0945 32.0312 16.3401 31.5625C16.5061 30.2344 17.0874 29.375 17.6686 28.8281C12.9356 28.3594 8.03649 26.6406 8.03649 18.9844C8.03649 16.7969 8.86685 15 10.1954 13.5938C9.94631 13.125 9.28203 11.0938 10.4445 8.35938C10.4445 8.35938 12.1883 7.8125 16.257 10.3906C19.7445 9.45313 23.3981 9.45313 26.8856 10.3906C30.9543 7.8125 32.6981 8.35938 32.6981 8.35938C33.8606 11.0938 33.1963 13.125 32.9472 13.5938C34.2758 15 35.1061 16.7969 35.1061 18.9844C35.1061 26.6406 30.124 28.3594 25.391 28.8281C26.2213 29.4531 26.8856 30.7031 26.8856 32.5781L26.8026 38.0469C26.8026 38.5156 27.0517 38.9844 28.1311 38.9844Z" fill="white"/>
</g>
<defs>
<clipPath id="clip0_109_308">
<rect width="42.5143" height="40" fill="white" transform="translate(0.314209)"/>
</clipPath>
</defs>
</svg>
